<?xml version="1.0" encoding="utf-8"?>
<!-- Generator: Adobe Illustrator 28.3.0, SVG Export Plug-In . SVG Version: 6.00 Build 0)  -->
<svg version="1.1" xmlns="http://www.w3.org/2000/svg" xmlns:xlink="http://www.w3.org/1999/xlink" x="0px" y="0px"
	 viewBox="0 0 2200 2200" style="enable-background:new 0 0 2200 2200;" xml:space="preserve">
<style type="text/css">
	.st0{fill:#FF6B6B;}
</style>
<g id="background">
</g>
<g id="Objects">
	<g>
		<g>
			<path class="st0" d="M1701.78,1848.65c-37.7,65.96-106.36,111.01-179.01,117.46c-137.67,12.2-260.42-104.31-398.57-106.12
				c-74.62-0.98-145.36,31.67-217.21,52.98c-90.41,26.8-185.5,35.95-279,26.81c-74.81-7.3-156.88-32.47-194.19-101.4
				c-34.46-63.66-18.33-147.34,22.26-206.82c40.59-59.49,101.37-99.55,161.78-135.63c60.42-36.07,123.16-70.56,171.74-122.95
				c57.25-61.74,90.36-143.46,136.35-214.97c10.88-16.92,23.02-33.53,36.31-49.03c35.37-41.28,86.99-63.3,139.4-57.62
				c13.29,1.44,26.45,4.6,39.37,9.86c84.47,34.34,117.34,139.57,174.91,213.38c56.07,71.87,137.56,114.8,213.69,161.7
				c76.13,46.91,152.87,104.4,187.22,190.18C1745.26,1697.47,1739.48,1782.68,1701.78,1848.65z"/>
		</g>
		<g>
			<path class="st0" d="M969.81,800.6c-38.31,112.47-182.72,143.58-263.86,56.78c-26.91-28.8-52.72-68.04-73.89-121.49
				c-33.41-84.44-28.93-179.91-10.45-268.81c14.66-70.54,52.65-150.16,124.05-159.69c69.42-9.27,126.19,53.58,161.69,113.95
				c44.05,74.93,77.69,157.89,83.08,244.64C992.82,704.49,985.9,753.36,969.81,800.6z"/>
		</g>
		<g>
			<path class="st0" d="M613.54,1094.42c-2.48,64.52-29.45,142.37-105.98,171.11c-80.16,30.09-158.62,12.6-210.2-59.74
				c-24.59-34.48-58.85-108.41-68.34-149.5c-26.51-114.77-13.21-263.43,85.91-307.01c34.18-15.03,73.32,3.03,103.19,22.65
				c70.71,46.44,119.17,117.4,157.2,190.98C596.5,1003.89,615.31,1047.91,613.54,1094.42z"/>
		</g>
		<g>
			<path class="st0" d="M1197.31,824.5c38.31,112.47,182.72,143.58,263.86,56.78c26.91-28.8,52.72-68.04,73.89-121.49
				c33.41-84.44,28.93-179.91,10.45-268.81c-14.66-70.54-52.65-150.16-124.05-159.69c-69.42-9.27-126.19,53.58-161.69,113.95
				c-44.05,74.93-77.69,157.89-83.08,244.64C1174.29,728.39,1181.21,777.26,1197.31,824.5z"/>
		</g>
		<g>
			<path class="st0" d="M1553.57,1118.32c2.48,64.52,29.45,142.37,105.98,171.11c80.16,30.09,158.62,12.6,210.2-59.74
				c24.59-34.48,58.85-108.41,68.34-149.5c26.51-114.77,13.21-263.43-85.91-307.01c-34.18-15.03-73.32,3.03-103.19,22.65
				c-70.71,46.44-119.17,117.4-157.2,190.98C1570.61,1027.79,1551.8,1071.81,1553.57,1118.32z"/>
		</g>
	</g>
</g>
</svg>
